<svg width="106" height="226" viewBox="0 0 106 226" fill="none" xmlns="http://www.w3.org/2000/svg">
<path fill-rule="evenodd" clip-rule="evenodd" d="M144.759 -76.2131C183.684 -78.5303 215.719 -120.801 253.544 -111.017C293.721 -100.624 334.948 -67.1342 341.136 -25.4172C347.4 16.8177 291.958 42.5987 282.493 84.1615C273.045 125.654 315.184 176.644 287.8 208.799C261.403 239.796 210.215 219.098 169.939 216.328C136.147 214.004 102.444 211.546 73.2187 194.042C43.746 176.389 18.4421 150.813 6.26581 118.295C-5.65196 86.4674 4.34262 52.5837 7.57229 18.7266C11.3978 -21.377 -5.84187 -74.8957 26.8528 -97.522C60.6257 -120.894 103.94 -73.7831 144.759 -76.2131Z" fill="#CCABD8"/>
</svg>
