<svg width="250" height="375" viewBox="0 0 250 375" fill="none" xmlns="http://www.w3.org/2000/svg">
<path fill-rule="evenodd" clip-rule="evenodd" d="M339.161 107.437C348.938 136.733 326.657 166.263 327.983 197.149C330.035 244.943 373.64 294.942 348.956 335.565C325.563 374.065 266.223 381.274 223.131 369.713C183.032 358.954 177.286 298.153 140.056 279.517C97.8593 258.394 23.4855 303.485 3.89933 259.968C-15.6169 216.607 58.2226 186.209 78.8394 143.507C92.0331 116.179 83.7336 81.7879 101.681 57.4381C121.939 29.9522 150.034 4.82039 183.651 1.30339C217.235 -2.21018 247.203 20.1026 275.294 39.2748C301.553 57.1961 328.996 76.9793 339.161 107.437Z" fill="#8474A1"/>
</svg>
