<svg width="238" height="415" viewBox="0 0 238 415" fill="none" xmlns="http://www.w3.org/2000/svg">
<path fill-rule="evenodd" clip-rule="evenodd" d="M-20.911 2.09417C23.2137 -8.57177 51.17 54.9136 94.1177 69.9021C134.082 83.8496 186.865 54.6646 216.803 85.0555C246.434 115.134 237.132 166.743 230.99 208.844C225.657 245.401 207.203 277.21 184.565 306.056C163.399 333.026 135.84 351.285 106.141 367.93C70.2158 388.065 34.2674 422.73 -5.57015 412.621C-45.4468 402.502 -64.2136 356.366 -84.0408 319.671C-101.196 287.92 -110.286 253.491 -111.115 217.285C-111.942 181.172 -102.662 147.299 -88.7476 114.105C-71.4075 72.7381 -63.876 12.4798 -20.911 2.09417Z" fill="#6EC6CA"/>
</svg>
